<svg width="180" height="360" viewBox="0 0 180 360" fill="none" xmlns="http://www.w3.org/2000/svg">
<path d="M1.62134e-05 4.62537e-05C99.4113 5.49445e-05 180 80.5888 180 180C180 279.411 99.4112 360 -1.52588e-05 360C-99.4113 360 -180 279.411 -180 180C-180 80.5888 -99.4112 3.75629e-05 1.62134e-05 4.62537e-05Z" fill="#009465"/>
<path d="M0 360C47.739 360 93.5226 341.036 127.279 307.279C161.036 273.523 180 227.739 180 180L1.57361e-05 180L0 360Z" fill="white"/>
<path d="M8.1067e-06 90C49.7056 90 90 130.294 90 180C90 229.706 49.7056 270 -7.62939e-06 270C-49.7056 270 -90 229.706 -90 180C-90 130.294 -49.7056 90 8.1067e-06 90Z" fill="black"/>
<path d="M90 180C90 156.131 80.5179 133.239 63.6396 116.36C46.7614 99.4821 23.8695 90 2.38655e-07 90C-23.8695 90 -46.7614 99.4821 -63.6396 116.36C-80.5179 133.239 -90 156.131 -90 180L90 180Z" fill="white"/>
</svg>
